<svg width="60" height="61" viewBox="0 0 60 61" fill="none" xmlns="http://www.w3.org/2000/svg">
<circle cx="30" cy="30.5" r="30" fill="#EFF6F1"/>
<path d="M33.6585 23.0472C34.7231 23.0503 35.7431 23.4589 36.4958 24.1838C37.2486 24.9086 37.6729 25.8909 37.6761 26.916V34.6527C37.6729 35.6778 37.2486 36.66 36.4958 37.3849C35.7431 38.1098 34.7231 38.5183 33.6585 38.5214H25.6243C24.5598 38.5183 23.5397 38.1098 22.787 37.3849C22.0342 36.66 21.6099 35.6778 21.6068 34.6527V26.916C21.6099 25.8909 22.0342 24.9086 22.787 24.1838C23.5397 23.4589 24.5598 23.0503 25.6243 23.0472H33.6585ZM33.6585 21.5H25.6243C22.5309 21.5 20 23.9371 20 26.916V34.6527C20 37.6315 22.5309 40.0686 25.6243 40.0686H33.6585C36.752 40.0686 39.2828 37.6315 39.2828 34.6527V26.916C39.2828 23.9371 36.752 21.5 33.6585 21.5Z" fill="#274C5B"/>
<path d="M34.8633 26.9163C34.6249 26.9163 34.3919 26.8482 34.1937 26.7207C33.9956 26.5932 33.8411 26.4119 33.7499 26.1999C33.6587 25.9878 33.6348 25.7545 33.6813 25.5293C33.7278 25.3042 33.8426 25.0974 34.0111 24.9351C34.1797 24.7728 34.3944 24.6623 34.6282 24.6175C34.862 24.5727 35.1043 24.5957 35.3245 24.6836C35.5447 24.7714 35.7329 24.9201 35.8654 25.111C35.9978 25.3018 36.0685 25.5262 36.0685 25.7558C36.0688 25.9083 36.0379 26.0593 35.9774 26.2003C35.917 26.3412 35.8282 26.4693 35.7163 26.5771C35.6043 26.6849 35.4713 26.7704 35.3249 26.8286C35.1785 26.8868 35.0217 26.9166 34.8633 26.9163ZM29.641 27.6897C30.2767 27.6897 30.8981 27.8712 31.4266 28.2113C31.9551 28.5514 32.3671 29.0347 32.6103 29.6003C32.8536 30.1658 32.9172 30.7881 32.7932 31.3884C32.6692 31.9888 32.3631 32.5402 31.9136 32.9731C31.4641 33.4059 30.8915 33.7007 30.268 33.8201C29.6446 33.9395 28.9984 33.8782 28.4111 33.644C27.8238 33.4097 27.3219 33.013 26.9687 32.5041C26.6156 31.9951 26.4271 31.3967 26.4271 30.7846C26.428 29.9641 26.7669 29.1774 27.3694 28.5972C27.972 28.0169 28.7889 27.6906 29.641 27.6897ZM29.641 26.1425C28.6876 26.1425 27.7555 26.4147 26.9628 26.9248C26.17 27.4349 25.5521 28.1599 25.1873 29.0081C24.8224 29.8564 24.7269 30.7898 24.9129 31.6903C25.099 32.5908 25.5581 33.4179 26.2323 34.0671C26.9065 34.7163 27.7654 35.1585 28.7005 35.3376C29.6357 35.5167 30.605 35.4248 31.4858 35.0734C32.3667 34.7221 33.1196 34.1271 33.6493 33.3637C34.179 32.6003 34.4617 31.7028 34.4617 30.7846C34.4617 29.5534 33.9538 28.3727 33.0498 27.5021C32.1457 26.6315 30.9196 26.1425 29.641 26.1425Z" fill="#274C5B"/>
</svg>
